<?xml version="1.0" encoding="UTF-8"?>
<svg version="1.1" xmlns="http://www.w3.org/2000/svg" width="1024" height="1024">
<path d="M0 0 C337.92 0 675.84 0 1024 0 C1024 337.92 1024 675.84 1024 1024 C686.08 1024 348.16 1024 0 1024 C0 686.08 0 348.16 0 0 Z " fill="#FEFEFE" transform="translate(0,0)"/>
<path d="M0 0 C2.22544721 0.90638904 4.45213122 1.8097442 6.6796875 2.7109375 C7.30916794 2.96562805 7.93864838 3.2203186 8.58720398 3.48272705 C18.89123776 7.63598946 29.26435538 11.61571845 39.625 15.625 C40.7066745 16.04370361 41.788349 16.46240723 42.90280151 16.89379883 C48.16924312 18.93211034 53.43616885 20.96916426 58.70361328 23.00488281 C63.10444227 24.7057724 67.50375041 26.41052595 71.90234375 28.1171875 C77.98910916 30.47511107 84.08401065 32.81071032 90.1875 35.125 C90.79055969 35.3536676 91.39361938 35.58233521 92.01495361 35.81793213 C131.40495513 50.73844385 171.23762256 64.22860653 211.29592896 77.23545837 C219.64720925 79.94730451 227.99552158 82.66768739 236.3309021 85.42807007 C238.18733779 86.04178465 240.04542481 86.65049713 241.90356445 87.2590332 C242.97823975 87.61570068 244.05291504 87.97236816 245.16015625 88.33984375 C246.07031494 88.64011475 246.98047363 88.94038574 247.91821289 89.24975586 C250.1875 90.125 250.1875 90.125 253.1875 92.125 C253.5617218 95.068573 253.5617218 95.068573 253.55981445 98.90576172 C253.56340847 99.606838 253.56700249 100.30791428 253.57070541 101.03023529 C253.57872393 103.37195161 253.56496079 105.71300806 253.55078125 108.0546875 C253.55110859 109.70260678 253.55254812 111.35052617 253.55503845 112.9984436 C253.55700529 117.41666541 253.53847453 121.834569 253.51411438 126.25271606 C253.50000199 128.99961347 253.49076518 131.74648594 253.48303223 134.4934082 C253.40591611 160.45657771 253.10216825 186.3642875 251.37432861 212.27770996 C251.16801486 215.42195587 250.97379976 218.56682582 250.78076172 221.71191406 C249.06919758 249.37470313 247.06029157 276.82017792 242.1875 304.125 C241.98511719 305.2804834 241.78273438 306.4359668 241.57421875 307.62646484 C240.42315943 314.12159554 239.1766365 320.59065927 237.82910156 327.04785156 C237.40335864 329.08973277 236.98595469 331.13337151 236.57714844 333.17871094 C231.15385221 360.1404863 222.2428307 386.93883969 211.1875 412.125 C210.88457031 412.81899902 210.58164062 413.51299805 210.26953125 414.22802734 C197.22480445 443.76442615 179.93889608 472.34956894 159.1875 497.125 C158.77145508 497.62451172 158.35541016 498.12402344 157.92675781 498.63867188 C152.45718383 505.19901043 146.88495185 511.64494547 141.12890625 517.95703125 C139.43763106 519.8456786 137.83259683 521.77060046 136.25 523.75 C135.569375 524.53375 134.88875 525.3175 134.1875 526.125 C133.5275 526.125 132.8675 526.125 132.1875 526.125 C131.97996094 526.66898438 131.77242187 527.21296875 131.55859375 527.7734375 C129.66667955 531.018259 127.02392563 533.27653981 124.25 535.75 C123.66661865 536.27779053 123.0832373 536.80558105 122.48217773 537.34936523 C121.28690016 538.43049714 120.08971592 539.50952484 118.890625 540.58642578 C117.37202574 541.95830258 115.8721463 543.35083657 114.375 544.74609375 C107.8445958 550.81975837 100.99396673 556.35193496 93.9296875 561.78125 C92.26794502 563.06295272 90.61693787 564.35718567 88.96875 565.65625 C80.63300187 572.19765804 71.99079006 578.23169801 63.1875 584.125 C62.22215332 584.775896 62.22215332 584.775896 61.23730469 585.43994141 C43.65397216 597.2524935 25.1680205 607.65970376 6.41784668 617.49353027 C5.15146499 618.15811668 3.88669509 618.82578457 2.62365723 619.4967041 C0.85519773 620.43337766 -0.92188435 621.35371539 -2.69921875 622.2734375 C-3.71201904 622.80114746 -4.72481934 623.32885742 -5.76831055 623.87255859 C-10.21518078 625.70209138 -13.93097605 626.70121774 -18.61303711 625.26733398 C-19.9628064 624.57619507 -19.9628064 624.57619507 -21.33984375 623.87109375 C-22.36706543 623.35345459 -23.39428711 622.83581543 -24.45263672 622.30249023 C-25.5407666 621.72829346 -26.62889648 621.15409668 -27.75 620.5625 C-29.46340576 619.6809021 -29.46340576 619.6809021 -31.21142578 618.78149414 C-42.02538148 613.15242403 -52.56530002 607.06964509 -63.01660156 600.79638672 C-65.68545311 599.20094857 -68.36709403 597.63001374 -71.0546875 596.06640625 C-83.08784742 589.02671704 -94.53511782 581.31668345 -105.8125 573.125 C-106.5451709 572.59342285 -107.2778418 572.0618457 -108.03271484 571.51416016 C-120.42471226 562.47732508 -132.05111189 552.75804245 -143.33984375 542.37890625 C-145.42384105 540.47927522 -147.53906269 538.63799893 -149.6875 536.8125 C-157.70520363 529.83627128 -165.30870837 522.14768574 -172.171875 514.03515625 C-173.31678879 512.70214948 -174.49725208 511.39921939 -175.703125 510.12109375 C-195.03068052 489.5408263 -210.29274756 464.77565896 -223.8125 440.125 C-224.27221191 439.30128906 -224.73192383 438.47757813 -225.20556641 437.62890625 C-236.35213435 417.60541562 -245.4657619 396.18315131 -252.15917969 374.25732422 C-252.85078025 372.00005992 -253.56930278 369.75233854 -254.2890625 367.50390625 C-270.98725402 314.56195221 -276.97194258 257.66127944 -279.5 202.4375 C-279.56410265 201.08488613 -279.62828239 199.73227592 -279.6925354 198.37966919 C-281.36543881 162.64672247 -281.10742423 126.88662533 -280.8125 91.125 C-276.75135148 89.70443926 -272.6883336 88.28929724 -268.625 86.875 C-267.49384766 86.47925781 -266.36269531 86.08351563 -265.19726562 85.67578125 C-257.4508535 82.98329612 -249.65950561 80.50590297 -241.8125 78.125 C-216.0120249 70.09757623 -190.34384317 61.86162573 -165.05957031 52.32470703 C-159.63762606 50.32144131 -154.16120451 48.48099548 -148.6875 46.625 C-138.21125981 43.05635691 -127.92118583 39.09406311 -117.64013672 35 C-111.56765126 32.58562807 -105.49619512 30.23821737 -99.3125 28.125 C-74.8668097 19.70946948 -51.012822 9.39007137 -27.06738281 -0.33746338 C-25.60787262 -0.93027688 -24.14779315 -1.52169188 -22.68699646 -2.11132812 C-21.09719019 -2.75901691 -19.51649505 -3.42899974 -17.93798828 -4.10375977 C-12.06240988 -6.23573222 -5.40937058 -2.24334489 0 0 Z " fill="#FCFCFC" transform="translate(525.8125,216.875)"/>
<path d="M0 0 C2.22544721 0.90638904 4.45213122 1.8097442 6.6796875 2.7109375 C7.30916794 2.96562805 7.93864838 3.2203186 8.58720398 3.48272705 C18.89123776 7.63598946 29.26435538 11.61571845 39.625 15.625 C40.7066745 16.04370361 41.788349 16.46240723 42.90280151 16.89379883 C48.16924312 18.93211034 53.43616885 20.96916426 58.70361328 23.00488281 C63.10444227 24.7057724 67.50375041 26.41052595 71.90234375 28.1171875 C77.98910916 30.47511107 84.08401065 32.81071032 90.1875 35.125 C90.79055969 35.3536676 91.39361938 35.58233521 92.01495361 35.81793213 C131.40495513 50.73844385 171.23762256 64.22860653 211.29592896 77.23545837 C219.64720925 79.94730451 227.99552158 82.66768739 236.3309021 85.42807007 C238.18733779 86.04178465 240.04542481 86.65049713 241.90356445 87.2590332 C242.97823975 87.61570068 244.05291504 87.97236816 245.16015625 88.33984375 C246.07031494 88.64011475 246.98047363 88.94038574 247.91821289 89.24975586 C250.1875 90.125 250.1875 90.125 253.1875 92.125 C253.5617218 95.068573 253.5617218 95.068573 253.55981445 98.90576172 C253.56340847 99.606838 253.56700249 100.30791428 253.57070541 101.03023529 C253.57872393 103.37195161 253.56496079 105.71300806 253.55078125 108.0546875 C253.55110859 109.70260678 253.55254812 111.35052617 253.55503845 112.9984436 C253.55700529 117.41666541 253.53847453 121.834569 253.51411438 126.25271606 C253.50000199 128.99961347 253.49076518 131.74648594 253.48303223 134.4934082 C253.40591611 160.45657771 253.10216825 186.3642875 251.37432861 212.27770996 C251.16801486 215.42195587 250.97379976 218.56682582 250.78076172 221.71191406 C249.06919758 249.37470313 247.06029157 276.82017792 242.1875 304.125 C241.98511719 305.2804834 241.78273438 306.4359668 241.57421875 307.62646484 C240.42315943 314.12159554 239.1766365 320.59065927 237.82910156 327.04785156 C237.40335864 329.08973277 236.98595469 331.13337151 236.57714844 333.17871094 C231.15385221 360.1404863 222.2428307 386.93883969 211.1875 412.125 C210.88457031 412.81899902 210.58164062 413.51299805 210.26953125 414.22802734 C197.22480445 443.76442615 179.93889608 472.34956894 159.1875 497.125 C158.77145508 497.62451172 158.35541016 498.12402344 157.92675781 498.63867188 C152.45718383 505.19901043 146.88495185 511.64494547 141.12890625 517.95703125 C139.43763106 519.8456786 137.83259683 521.77060046 136.25 523.75 C135.569375 524.53375 134.88875 525.3175 134.1875 526.125 C133.5275 526.125 132.8675 526.125 132.1875 526.125 C131.97996094 526.66898438 131.77242187 527.21296875 131.55859375 527.7734375 C129.66667955 531.018259 127.02392563 533.27653981 124.25 535.75 C123.66661865 536.27779053 123.0832373 536.80558105 122.48217773 537.34936523 C121.28690016 538.43049714 120.08971592 539.50952484 118.890625 540.58642578 C117.37202574 541.95830258 115.8721463 543.35083657 114.375 544.74609375 C107.8445958 550.81975837 100.99396673 556.35193496 93.9296875 561.78125 C92.26794502 563.06295272 90.61693787 564.35718567 88.96875 565.65625 C80.63300187 572.19765804 71.99079006 578.23169801 63.1875 584.125 C62.22215332 584.775896 62.22215332 584.775896 61.23730469 585.43994141 C43.65397216 597.2524935 25.1680205 607.65970376 6.41784668 617.49353027 C5.15146499 618.15811668 3.88669509 618.82578457 2.62365723 619.4967041 C0.85519773 620.43337766 -0.92188435 621.35371539 -2.69921875 622.2734375 C-3.71201904 622.80114746 -4.72481934 623.32885742 -5.76831055 623.87255859 C-10.21518078 625.70209138 -13.93097605 626.70121774 -18.61303711 625.26733398 C-19.9628064 624.57619507 -19.9628064 624.57619507 -21.33984375 623.87109375 C-22.36706543 623.35345459 -23.39428711 622.83581543 -24.45263672 622.30249023 C-25.5407666 621.72829346 -26.62889648 621.15409668 -27.75 620.5625 C-29.46340576 619.6809021 -29.46340576 619.6809021 -31.21142578 618.78149414 C-42.02538148 613.15242403 -52.56530002 607.06964509 -63.01660156 600.79638672 C-65.68545311 599.20094857 -68.36709403 597.63001374 -71.0546875 596.06640625 C-83.08784742 589.02671704 -94.53511782 581.31668345 -105.8125 573.125 C-106.5451709 572.59342285 -107.2778418 572.0618457 -108.03271484 571.51416016 C-120.42471226 562.47732508 -132.05111189 552.75804245 -143.33984375 542.37890625 C-145.42384105 540.47927522 -147.53906269 538.63799893 -149.6875 536.8125 C-157.70520363 529.83627128 -165.30870837 522.14768574 -172.171875 514.03515625 C-173.31678879 512.70214948 -174.49725208 511.39921939 -175.703125 510.12109375 C-195.03068052 489.5408263 -210.29274756 464.77565896 -223.8125 440.125 C-224.27221191 439.30128906 -224.73192383 438.47757813 -225.20556641 437.62890625 C-236.35213435 417.60541562 -245.4657619 396.18315131 -252.15917969 374.25732422 C-252.85078025 372.00005992 -253.56930278 369.75233854 -254.2890625 367.50390625 C-270.98725402 314.56195221 -276.97194258 257.66127944 -279.5 202.4375 C-279.56410265 201.08488613 -279.62828239 199.73227592 -279.6925354 198.37966919 C-281.36543881 162.64672247 -281.10742423 126.88662533 -280.8125 91.125 C-276.75135148 89.70443926 -272.6883336 88.28929724 -268.625 86.875 C-267.49384766 86.47925781 -266.36269531 86.08351563 -265.19726562 85.67578125 C-257.4508535 82.98329612 -249.65950561 80.50590297 -241.8125 78.125 C-216.0120249 70.09757623 -190.34384317 61.86162573 -165.05957031 52.32470703 C-159.63762606 50.32144131 -154.16120451 48.48099548 -148.6875 46.625 C-138.21125981 43.05635691 -127.92118583 39.09406311 -117.64013672 35 C-111.56765126 32.58562807 -105.49619512 30.23821737 -99.3125 28.125 C-74.8668097 19.70946948 -51.012822 9.39007137 -27.06738281 -0.33746338 C-25.60787262 -0.93027688 -24.14779315 -1.52169188 -22.68699646 -2.11132812 C-21.09719019 -2.75901691 -19.51649505 -3.42899974 -17.93798828 -4.10375977 C-12.06240988 -6.23573222 -5.40937058 -2.24334489 0 0 Z M-149.8125 149.125 C-150.30476074 149.58326172 -150.79702148 150.04152344 -151.30419922 150.51367188 C-184.32399199 181.50638482 -202.2495715 223.07353152 -209.8125 267.125 C-209.99135742 268.020979 -210.17021484 268.91695801 -210.35449219 269.84008789 C-210.96245406 274.20049674 -211.01352937 278.49653521 -211.05078125 282.89453125 C-211.06066574 283.83956512 -211.07055023 284.784599 -211.08073425 285.75827026 C-211.47423247 333.17856814 -203.06522946 381.80487602 -172.8125 420.125 C-171.65814453 421.67380859 -171.65814453 421.67380859 -170.48046875 423.25390625 C-165.10864523 430.45341171 -159.38152472 437.1980041 -153.17724609 443.69287109 C-151.86301533 445.07199053 -150.56589339 446.46735213 -149.26953125 447.86328125 C-119.26556412 479.2290018 -71.55408472 502.1042665 -27.79345703 503.28613281 C-26.38581224 503.30596084 -24.97807182 503.31971714 -23.5703125 503.328125 C-22.80306854 503.33382507 -22.03582458 503.33952515 -21.24533081 503.34539795 C-19.62678375 503.35478725 -18.00821809 503.36135756 -16.38964844 503.36523438 C-13.97815064 503.37483811 -11.56754489 503.40587646 -9.15625 503.4375 C5.32835053 503.5365009 19.22977557 501.43437854 33.25 497.8125 C34.07814209 497.60012695 34.90628418 497.38775391 35.75952148 497.16894531 C62.57890554 490.10054879 86.72765742 477.6512929 108.1875 460.125 C109.02595459 459.44896729 109.02595459 459.44896729 109.88134766 458.75927734 C153.43733697 423.45522624 176.73746479 372.82724296 183.79052734 317.94799805 C184.42739123 311.81475603 184.57133694 305.72546123 184.5625 299.5625 C184.56195618 298.90702179 184.56141235 298.25154358 184.56085205 297.57620239 C184.34316964 239.51507956 161.63051584 188.03787321 120.81152344 147.3828125 C83.69059499 111.29529921 33.03519497 93.51807952 -18.23144531 93.63354492 C-68.11314402 94.6412239 -113.72421979 115.3221337 -149.8125 149.125 Z " fill="#FDFDFD" transform="translate(525.8125,216.875)"/>
<path d="M0 0 C2.22544721 0.90638904 4.45213122 1.8097442 6.6796875 2.7109375 C7.30916794 2.96562805 7.93864838 3.2203186 8.58720398 3.48272705 C18.89123776 7.63598946 29.26435538 11.61571845 39.625 15.625 C40.7066745 16.04370361 41.788349 16.46240723 42.90280151 16.89379883 C48.16924312 18.93211034 53.43616885 20.96916426 58.70361328 23.00488281 C63.10444227 24.7057724 67.50375041 26.41052595 71.90234375 28.1171875 C77.98910916 30.47511107 84.08401065 32.81071032 90.1875 35.125 C90.79055969 35.3536676 91.39361938 35.58233521 92.01495361 35.81793213 C131.40495513 50.73844385 171.23762256 64.22860653 211.29592896 77.23545837 C219.64720925 79.94730451 227.99552158 82.66768739 236.3309021 85.42807007 C238.18733779 86.04178465 240.04542481 86.65049713 241.90356445 87.2590332 C242.97823975 87.61570068 244.05291504 87.97236816 245.16015625 88.33984375 C246.07031494 88.64011475 246.98047363 88.94038574 247.91821289 89.24975586 C250.1875 90.125 250.1875 90.125 253.1875 92.125 C253.5617218 95.068573 253.5617218 95.068573 253.55981445 98.90576172 C253.56340847 99.606838 253.56700249 100.30791428 253.57070541 101.03023529 C253.57872393 103.37195161 253.56496079 105.71300806 253.55078125 108.0546875 C253.55110859 109.70260678 253.55254812 111.35052617 253.55503845 112.9984436 C253.55700529 117.41666541 253.53847453 121.834569 253.51411438 126.25271606 C253.50000199 128.99961347 253.49076518 131.74648594 253.48303223 134.4934082 C253.40591611 160.45657771 253.10216825 186.3642875 251.37432861 212.27770996 C251.16801486 215.42195587 250.97379976 218.56682582 250.78076172 221.71191406 C249.06919758 249.37470313 247.06029157 276.82017792 242.1875 304.125 C241.98511719 305.2804834 241.78273438 306.4359668 241.57421875 307.62646484 C240.42315943 314.12159554 239.1766365 320.59065927 237.82910156 327.04785156 C237.40335864 329.08973277 236.98595469 331.13337151 236.57714844 333.17871094 C231.15385221 360.1404863 222.2428307 386.93883969 211.1875 412.125 C210.88457031 412.81899902 210.58164062 413.51299805 210.26953125 414.22802734 C197.22480445 443.76442615 179.93889608 472.34956894 159.1875 497.125 C158.77145508 497.62451172 158.35541016 498.12402344 157.92675781 498.63867188 C152.45718383 505.19901043 146.88495185 511.64494547 141.12890625 517.95703125 C139.43763106 519.8456786 137.83259683 521.77060046 136.25 523.75 C135.569375 524.53375 134.88875 525.3175 134.1875 526.125 C133.5275 526.125 132.8675 526.125 132.1875 526.125 C131.97996094 526.66898438 131.77242187 527.21296875 131.55859375 527.7734375 C129.66667955 531.018259 127.02392563 533.27653981 124.25 535.75 C123.66661865 536.27779053 123.0832373 536.80558105 122.48217773 537.34936523 C121.28690016 538.43049714 120.08971592 539.50952484 118.890625 540.58642578 C117.37202574 541.95830258 115.8721463 543.35083657 114.375 544.74609375 C107.8445958 550.81975837 100.99396673 556.35193496 93.9296875 561.78125 C92.26794502 563.06295272 90.61693787 564.35718567 88.96875 565.65625 C80.63300187 572.19765804 71.99079006 578.23169801 63.1875 584.125 C62.22215332 584.775896 62.22215332 584.775896 61.23730469 585.43994141 C43.65397216 597.2524935 25.1680205 607.65970376 6.41784668 617.49353027 C5.15146499 618.15811668 3.88669509 618.82578457 2.62365723 619.4967041 C0.85519773 620.43337766 -0.92188435 621.35371539 -2.69921875 622.2734375 C-3.71201904 622.80114746 -4.72481934 623.32885742 -5.76831055 623.87255859 C-10.21518078 625.70209138 -13.93097605 626.70121774 -18.61303711 625.26733398 C-19.9628064 624.57619507 -19.9628064 624.57619507 -21.33984375 623.87109375 C-22.36706543 623.35345459 -23.39428711 622.83581543 -24.45263672 622.30249023 C-25.5407666 621.72829346 -26.62889648 621.15409668 -27.75 620.5625 C-29.46340576 619.6809021 -29.46340576 619.6809021 -31.21142578 618.78149414 C-42.02538148 613.15242403 -52.56530002 607.06964509 -63.01660156 600.79638672 C-65.68545311 599.20094857 -68.36709403 597.63001374 -71.0546875 596.06640625 C-83.08784742 589.02671704 -94.53511782 581.31668345 -105.8125 573.125 C-106.5451709 572.59342285 -107.2778418 572.0618457 -108.03271484 571.51416016 C-120.42471226 562.47732508 -132.05111189 552.75804245 -143.33984375 542.37890625 C-145.42384105 540.47927522 -147.53906269 538.63799893 -149.6875 536.8125 C-157.70520363 529.83627128 -165.30870837 522.14768574 -172.171875 514.03515625 C-173.31678879 512.70214948 -174.49725208 511.39921939 -175.703125 510.12109375 C-195.03068052 489.5408263 -210.29274756 464.77565896 -223.8125 440.125 C-224.27221191 439.30128906 -224.73192383 438.47757813 -225.20556641 437.62890625 C-236.35213435 417.60541562 -245.4657619 396.18315131 -252.15917969 374.25732422 C-252.85078025 372.00005992 -253.56930278 369.75233854 -254.2890625 367.50390625 C-270.98725402 314.56195221 -276.97194258 257.66127944 -279.5 202.4375 C-279.56410265 201.08488613 -279.62828239 199.73227592 -279.6925354 198.37966919 C-281.36543881 162.64672247 -281.10742423 126.88662533 -280.8125 91.125 C-276.75135148 89.70443926 -272.6883336 88.28929724 -268.625 86.875 C-267.49384766 86.47925781 -266.36269531 86.08351563 -265.19726562 85.67578125 C-257.4508535 82.98329612 -249.65950561 80.50590297 -241.8125 78.125 C-216.0120249 70.09757623 -190.34384317 61.86162573 -165.05957031 52.32470703 C-159.63762606 50.32144131 -154.16120451 48.48099548 -148.6875 46.625 C-138.21125981 43.05635691 -127.92118583 39.09406311 -117.64013672 35 C-111.56765126 32.58562807 -105.49619512 30.23821737 -99.3125 28.125 C-74.8668097 19.70946948 -51.012822 9.39007137 -27.06738281 -0.33746338 C-25.60787262 -0.93027688 -24.14779315 -1.52169188 -22.68699646 -2.11132812 C-21.09719019 -2.75901691 -19.51649505 -3.42899974 -17.93798828 -4.10375977 C-12.06240988 -6.23573222 -5.40937058 -2.24334489 0 0 Z M-19.24121094 27.55273438 C-20.08689636 27.8905896 -20.93258179 28.22844482 -21.80389404 28.57653809 C-22.70907776 28.95346802 -23.61426147 29.33039795 -24.546875 29.71875 C-25.49830383 30.10309204 -26.44973267 30.48743408 -27.42999268 30.88342285 C-30.47922428 32.11856253 -33.5207849 33.37147975 -36.5625 34.625 C-38.56332459 35.43867514 -40.56462262 36.25118714 -42.56640625 37.0625 C-49.88778718 40.03572908 -57.19817258 43.03524012 -64.49414062 46.0703125 C-73.86211072 49.96362732 -83.29142347 53.62364401 -92.8125 57.125 C-94.31305822 57.6796611 -95.81354431 58.23451733 -97.31396484 58.78955078 C-102.20633282 60.59700851 -107.10249514 62.39401313 -112 64.1875 C-113.31670181 64.66981079 -113.31670181 64.66981079 -114.66000366 65.16186523 C-131.16478761 71.20203555 -147.72277429 77.08366614 -164.32130432 82.86088562 C-168.0330106 84.15276789 -171.74181095 85.45216846 -175.44628906 86.76464844 C-187.80739792 91.13567829 -200.23885663 95.26940435 -212.70703125 99.32421875 C-215.9695971 100.38544029 -219.23096039 101.4502973 -222.4921875 102.515625 C-224.6014938 103.20333576 -226.71086639 103.89084323 -228.8203125 104.578125 C-229.77777374 104.89066223 -230.73523499 105.20319946 -231.72171021 105.52520752 C-237.05967726 107.25950231 -242.40672941 108.89945335 -247.81613159 110.39813232 C-250.0050739 111.03589494 -250.0050739 111.03589494 -251.8125 113.125 C-252.11865251 115.29696021 -252.11865251 115.29696021 -252.07128906 117.83862305 C-252.07749268 118.8297963 -252.08369629 119.82096954 -252.09008789 120.84217834 C-252.08614014 121.92937668 -252.08219238 123.01657501 -252.078125 124.13671875 C-252.08094482 125.27100815 -252.08376465 126.40529755 -252.08666992 127.57395935 C-252.09098387 131.32026159 -252.07823292 135.06623112 -252.0625 138.8125 C-252.05939819 140.09695007 -252.05629639 141.38140015 -252.05310059 142.70477295 C-251.93820559 183.34793074 -249.73726074 223.67609894 -245.8125 264.125 C-245.74011108 264.8730188 -245.66772217 265.6210376 -245.59313965 266.39172363 C-244.31066959 279.55534654 -242.90478781 292.67858919 -240.30322266 305.65429688 C-239.93920429 307.48706594 -239.58645743 309.32208138 -239.23974609 311.15820312 C-228.52355598 367.8822395 -207.44589915 421.61488595 -172.8125 468.125 C-172.22202881 468.92381592 -172.22202881 468.92381592 -171.61962891 469.73876953 C-153.43521109 494.24496859 -131.95279668 517.41253844 -107.8125 536.125 C-106.71276855 536.98496582 -106.71276855 536.98496582 -105.59082031 537.86230469 C-81.82189738 556.40933792 -56.68058972 572.15339383 -30.31738281 586.73779297 C-28.78741284 587.58509213 -27.26003028 588.43711289 -25.73730469 589.29736328 C-24.10610861 590.21694897 -22.46009661 591.11013266 -20.8125 592 C-19.9875 592.45117188 -19.1625 592.90234375 -18.3125 593.3671875 C-11.84540069 595.32752698 -6.50736566 592.22835262 -0.88574219 589.28076172 C0.08717773 588.75498535 1.06009766 588.22920898 2.0625 587.6875 C3.08698242 587.14109863 4.11146484 586.59469727 5.16699219 586.03173828 C8.18301856 584.41240476 11.18758935 582.77396779 14.1875 581.125 C14.94385742 580.71072754 15.70021484 580.29645508 16.47949219 579.86962891 C26.30109533 574.4332566 35.65464836 568.26963978 45 562.0625 C45.56650269 561.68704041 46.13300537 561.31158081 46.7166748 560.92474365 C71.46752971 544.48139662 94.02842245 525.31326071 115.0625 504.375 C115.76407227 503.67810059 116.46564453 502.98120117 117.18847656 502.26318359 C136.71747456 482.67382492 153.07524603 459.83947514 167.1875 436.125 C167.52861816 435.55394531 167.86973633 434.98289062 168.22119141 434.39453125 C189.85585178 397.87659496 205.11496245 356.05179181 212.1875 314.125 C212.38150391 312.98595215 212.57550781 311.8469043 212.77539062 310.67333984 C217.37517241 283.28657262 220.44292443 255.84635038 222.1875 228.125 C222.24147949 227.27470215 222.29545898 226.4244043 222.35107422 225.54833984 C222.72502127 219.41032009 222.97545739 213.27057969 223.1875 207.125 C223.23261719 205.82755859 223.27773438 204.53011719 223.32421875 203.19335938 C224.01706161 182.6115135 224.30559459 162.02815673 224.36373901 141.43502808 C224.37124016 138.98036542 224.38191609 136.52571039 224.39578247 134.07107544 C224.41353475 130.62283322 224.41780914 127.17484485 224.41796875 123.7265625 C224.42510895 122.68262833 224.43224915 121.63869415 224.43960571 120.56312561 C224.4365744 119.60981857 224.43354309 118.65651154 224.43041992 117.67431641 C224.43255745 116.42299423 224.43255745 116.42299423 224.43473816 115.14639282 C224.37026736 112.89708121 224.37026736 112.89708121 222.1875 111.125 C220.1909961 110.39106478 218.16493868 109.73693519 216.12890625 109.12109375 C214.80564309 108.71491208 213.48240215 108.30865798 212.15917969 107.90234375 C211.08815002 107.5772583 211.08815002 107.5772583 209.9954834 107.24560547 C137.86407454 85.30228587 66.07030539 59.71237996 -3.18286133 29.85180664 C-4.01068115 29.49723389 -4.83850098 29.14266113 -5.69140625 28.77734375 C-6.3779126 28.47820068 -7.06441895 28.17905762 -7.77172852 27.87084961 C-12.059357 26.30383142 -14.95880119 25.80456842 -19.24121094 27.55273438 Z " fill="#161615" transform="translate(525.8125,216.875)"/>
<path d="M0 0 C0.7513623 0.23170898 1.50272461 0.46341797 2.27685547 0.70214844 C43.75770576 13.78010367 80.66188145 39.38912469 106 75 C106.4218457 75.58813477 106.84369141 76.17626953 107.27832031 76.78222656 C137.70617206 119.62960964 150.31334606 174.91331622 142.25 226.8125 C141.55505394 230.88657533 140.79000892 234.94344529 140 239 C139.85046875 239.82741699 139.7009375 240.65483398 139.546875 241.50732422 C131.39648008 286.57032948 104.48616105 331.21082233 68 359 C66.97261719 359.81984375 65.94523437 360.6396875 64.88671875 361.484375 C57.61033024 367.2685933 50.08527816 372.38993424 42 377 C41.36610352 377.36480469 40.73220703 377.72960937 40.07910156 378.10546875 C18.59980424 390.34355162 -4.68220132 397.17124021 -29 401 C-29.90121582 401.17273438 -30.80243164 401.34546875 -31.73095703 401.5234375 C-35.49069281 402.07153341 -39.18591016 402.17981656 -42.9765625 402.203125 C-44.1149054 402.21364647 -44.1149054 402.21364647 -45.27624512 402.22438049 C-47.72589052 402.24186501 -50.1752944 402.24823702 -52.625 402.25 C-53.46013123 402.25067474 -54.29526245 402.25134949 -55.15570068 402.25204468 C-67.66704028 402.23595476 -79.75816071 401.80650532 -92 399 C-92.77327637 398.82839355 -93.54655273 398.65678711 -94.34326172 398.47998047 C-112.48366294 394.35498373 -129.65551508 387.85945888 -146 379 C-147.04542969 378.43539063 -148.09085937 377.87078125 -149.16796875 377.2890625 C-172.68284544 364.05612 -193.7455458 345.37682106 -209.74560547 323.68554688 C-210.95038281 322.06667129 -212.19518265 320.47781538 -213.44140625 318.890625 C-226.63217931 301.77519311 -235.48690319 281.47544808 -242 261 C-242.24685547 260.24235352 -242.49371094 259.48470703 -242.74804688 258.70410156 C-244.41212009 253.52058263 -245.77861554 248.30420551 -247 243 C-247.19609863 242.18547363 -247.39219727 241.37094727 -247.59423828 240.53173828 C-254.16144312 212.04521196 -254.49932449 177.31936689 -247 149 C-246.67854004 147.7001416 -246.67854004 147.7001416 -246.35058594 146.37402344 C-233.16931825 93.4378989 -200.67398386 48.73685913 -154.15576172 20.29345703 C-108.74394159 -6.95363505 -50.98408557 -15.80201359 0 0 Z M-101.4375 21.6875 C-102.30745605 21.94313721 -103.17741211 22.19877441 -104.07373047 22.4621582 C-125.76440925 29.05265153 -145.53878517 39.54624377 -163 54 C-164.07488476 54.86017045 -165.15041688 55.71953251 -166.2265625 56.578125 C-196.18409408 80.80624512 -215.71213307 114.87321217 -225 152 C-225.19609863 152.72590332 -225.39219727 153.45180664 -225.59423828 154.19970703 C-229.18507814 167.86721278 -229.37181478 181.52341167 -229.375 195.5625 C-229.37690338 196.47409882 -229.37880676 197.38569763 -229.38076782 198.32492065 C-229.37831169 208.72593104 -229.02697472 218.76063366 -227 229 C-226.85949219 229.77287354 -226.71898437 230.54574707 -226.57421875 231.34204102 C-219.42179271 269.51899153 -201.68426306 302.05596486 -175 330 C-174.39800781 330.65484375 -173.79601562 331.3096875 -173.17578125 331.984375 C-167.44356696 338.04868231 -160.67639768 343.03147748 -154 348 C-153.42781738 348.42716309 -152.85563477 348.85432617 -152.26611328 349.29443359 C-117.31309607 374.96948818 -71.51034732 384.9306943 -28.8125 378.875 C15.65410983 371.83828488 57.22882129 347.27000174 84.3605957 311.203125 C90.63362929 302.53391402 96.10305029 293.50722578 101 284 C101.33837891 283.35836914 101.67675781 282.71673828 102.02539062 282.05566406 C123.97581155 240.06446687 128.38188858 187.19126012 114.5859375 141.9296875 C114.06174693 140.28503168 113.53336874 138.64170226 113 137 C112.77473633 136.28875977 112.54947266 135.57751953 112.31738281 134.84472656 C98.36571138 91.6133142 65.34261708 55.41424497 25.5 34.5625 C7.47359786 25.38022371 -10.14985758 20.64590647 -30 17 C-30.93134766 16.81896729 -31.86269531 16.63793457 -32.82226562 16.45141602 C-36.57210612 15.91872893 -40.26747094 15.81912478 -44.046875 15.796875 C-44.81694885 15.79117493 -45.58702271 15.78547485 -46.38043213 15.77960205 C-48.01093186 15.77018623 -49.64145032 15.76363171 -51.27197266 15.75976562 C-53.70121289 15.75019226 -56.12955644 15.71919386 -58.55859375 15.6875 C-73.20978262 15.5873402 -87.36819074 17.51454812 -101.4375 21.6875 Z " fill="#161615" transform="translate(566,318)"/>
<path d="M0 0 C4.40191093 2.74081247 6.28923308 4.92813606 7.57546997 9.9229126 C8.39733969 13.94405393 8.78323789 18.00485215 9.18359375 22.0859375 C9.28367737 23.05202438 9.38376099 24.01811127 9.48687744 25.01347351 C9.80922209 28.13344772 10.12328357 31.25419778 10.4375 34.375 C10.87728022 38.65264835 11.32140205 42.92984228 11.765625 47.20703125 C11.92686104 48.76758492 11.92686104 48.76758492 12.09135437 50.35966492 C12.87788378 57.93811153 13.74267444 65.50201587 14.6875 73.0625 C16.61002805 88.67039222 18.48380688 104.24939808 18 120 C18.66 120 19.32 120 20 120 C20.02578125 119.37738281 20.0515625 118.75476563 20.078125 118.11328125 C20.65754433 108.67137992 22.50517481 99.56459222 24.35253906 90.30957031 C24.95530136 87.22848219 25.53516787 84.14382076 26.10508728 81.0565033 C26.62283764 78.25366337 27.14782392 75.45219753 27.67324829 72.65078735 C27.9308736 71.26865939 28.18561737 69.88599093 28.43734741 68.5027771 C28.79481223 66.54325581 29.16479561 64.58603113 29.53515625 62.62890625 C29.745354 61.49525635 29.95555176 60.36160645 30.17211914 59.19360352 C31.67940121 53.37916626 33.77491098 49.15935615 39 46 C42.98030408 45.23781411 44.62731738 45.79538994 48.1875 47.75 C55.1214546 54.23584569 55.38959976 69.50795687 57.16210938 78.62695312 C57.62451832 80.99753064 58.09720761 83.36591202 58.5703125 85.734375 C60.22592078 94.14615637 61.56875986 102.41726948 62 111 C62.66 111 63.32 111 64 111 C64.09796875 110.07445312 64.1959375 109.14890625 64.296875 108.1953125 C65.05428101 102.93319452 66.66594302 97.93724168 68.25 92.875 C68.53746094 91.89917969 68.82492187 90.92335938 69.12109375 89.91796875 C70.87452134 84.30546907 72.39691126 80.72263217 77 77 C77.33 76.67 77.66 76.34 78 76 C80.07421875 75.65625 80.07421875 75.65625 82.6875 75.5 C83.96173828 75.39171875 83.96173828 75.39171875 85.26171875 75.28125 C89.64113602 76.43076894 91.63984617 79.25086403 94 83 C95.58665043 86.50289657 96.75367876 90.0751245 97.875 93.75 C98.18179688 94.69488281 98.48859375 95.63976562 98.8046875 96.61328125 C101 103.50303432 101 103.50303432 101 107 C102.12494873 106.98428955 103.24989746 106.9685791 104.40893555 106.95239258 C108.59278165 106.89798784 112.77659662 106.86361164 116.96069336 106.83520508 C118.76966617 106.82014245 120.5786026 106.79968823 122.38745117 106.77368164 C124.99146515 106.7371868 127.5949952 106.72024843 130.19921875 106.70703125 C131.40731453 106.68380547 131.40731453 106.68380547 132.63981628 106.66011047 C138.27348256 106.65843171 141.32831888 107.87906016 145.78125 111.4140625 C147.81756834 114.06388701 147.52579068 116.54155381 147.42578125 119.7734375 C146.74424281 123.33744585 144.83056293 124.89353457 142 127 C139.1511086 127.94963047 137.29328703 128.14704922 134.33251953 128.19287109 C133.38788849 128.20893402 132.44325745 128.22499695 131.47000122 128.24154663 C127.1601847 128.28606733 122.85051995 128.3270429 118.54052734 128.35009766 C116.26698584 128.36667387 113.99349679 128.3939855 111.72021484 128.43212891 C108.440806 128.4868571 105.1626163 128.50876396 101.8828125 128.5234375 C100.86808868 128.54610687 99.85336487 128.56877625 98.80789185 128.59213257 C91.76326273 128.5710192 91.76326273 128.5710192 87.93310547 125.70556641 C85.62319235 122.47262158 84.38002609 119.70428056 83 116 C81.91453931 119.54101807 80.83212239 123.08296049 79.75 126.625 C79.26793091 128.19677002 79.26793091 128.19677002 78.77612305 129.80029297 C76.70419889 136.58541326 74.76052576 143.37959775 73.01953125 150.2578125 C71.61313356 154.04053732 69.6772412 157.1613794 66 159 C60.92862646 159.62831177 57.21853215 159.88851302 53 156.8125 C49.33238577 151.65491749 48.37692204 146.38255693 47.30859375 140.26953125 C47.158423 139.43789963 47.00825226 138.60626801 46.85353088 137.74943542 C46.37651748 135.10465923 45.90648822 132.4587101 45.4375 129.8125 C44.96416619 127.15573089 44.48929301 124.49926684 44.01075745 121.84342957 C43.71370449 120.19354415 43.41977335 118.54309304 43.1292572 116.89204407 C42.45082663 112.827527 42.45082663 112.827527 41 109 C40.6757605 110.89383423 40.6757605 110.89383423 40.3449707 112.82592773 C38.08998021 125.97707321 35.79849626 139.12151769 33.48095703 152.26177979 C33.0533212 154.69642779 32.63070182 157.13185616 32.2109375 159.56787109 C31.59888678 163.09111998 30.9620632 166.60851219 30.3125 170.125 C30.1472583 171.1039624 29.9820166 172.0829248 29.81176758 173.09155273 C29.00117736 177.32110635 28.5675974 179.42448264 25.48046875 182.5546875 C21.31873073 184.97963721 18.90679133 185.49067913 14 185 C9.61860007 182.27195853 7.72060338 180.09668203 6.44018555 175.1262207 C5.55044139 170.82850474 5.06758542 166.48171642 4.5625 162.125 C4.43617188 161.07417236 4.30984375 160.02334473 4.1796875 158.94067383 C3.91446461 156.73010015 3.65164519 154.51923691 3.39111328 152.30810547 C3.01693552 149.14324363 2.63336248 145.97968997 2.24609375 142.81640625 C1.17516942 134.03496661 0.12820293 125.2526619 -0.8203125 116.45703125 C-0.95501953 115.21284424 -1.08972656 113.96865723 -1.22851562 112.68676758 C-1.48908123 110.26386041 -1.74571105 107.84052614 -1.99804688 105.41674805 C-2.11470703 104.33047119 -2.23136719 103.24419434 -2.3515625 102.125 C-2.45291504 101.15820312 -2.55426758 100.19140625 -2.65869141 99.1953125 C-2.77438178 97.02892395 -2.77438178 97.02892395 -4 96 C-4.06628601 96.60910217 -4.13257202 97.21820435 -4.2008667 97.84576416 C-4.52447501 100.81905776 -4.84817993 103.79234084 -5.171875 106.765625 C-5.29425034 107.89019608 -5.41662567 109.01476715 -5.54270935 110.17341614 C-6.21907637 116.38598918 -6.89744352 122.59833465 -7.5793457 128.81030273 C-9.28283114 144.30861206 -9.28283114 144.30861206 -10.91262817 159.81478882 C-11.2538003 163.14163009 -11.60271621 166.46763523 -11.95251465 169.7935791 C-12.10799775 171.29485931 -12.25934859 172.79657378 -12.40637207 174.29870605 C-12.60816443 176.35791862 -12.82397368 178.41521318 -13.04296875 180.47265625 C-13.15664795 181.59937744 -13.27032715 182.72609863 -13.38745117 183.88696289 C-14.07374356 187.37477245 -15.17571878 189.95478841 -17 193 C-21.05070499 195.70047 -24.24685324 195.75313945 -29 195 C-32.40791447 192.99970238 -33.63722974 191.22297727 -34.75830078 187.44360352 C-36.82643793 178.21783038 -38.47053645 168.95179372 -40 159.625 C-40.13006439 158.84084717 -40.26012878 158.05669434 -40.39413452 157.2487793 C-42.44659446 144.86439133 -44.26834917 132.46669904 -45.70629883 119.99414062 C-46.00738081 117.94988657 -46.49554058 116.00218743 -47 114 C-47.12205329 111.32459184 -47.04467313 108.68038762 -47 106 C-47.66 106 -48.32 106 -49 106 C-48.97059326 106.96550781 -48.94118652 107.93101562 -48.91088867 108.92578125 C-48.91505982 113.43797348 -49.64569067 117.7532376 -50.42578125 122.1875 C-50.57403854 123.04883545 -50.72229584 123.9101709 -50.87504578 124.79760742 C-51.18899638 126.61006173 -51.50601079 128.42198773 -51.82592773 130.23339844 C-52.3107054 132.98979606 -52.77989601 135.7485485 -53.24804688 138.5078125 C-53.55634818 140.27620641 -53.86556271 142.04444141 -54.17578125 143.8125 C-54.31341385 144.62936279 -54.45104645 145.44622559 -54.59284973 146.2878418 C-55.67660088 152.31163702 -57.00233089 157.77402585 -61.1875 162.4375 C-64.14058611 164.07810339 -66.46922524 164.51124606 -69.83984375 164.62890625 C-73.25585512 163.6343713 -75.66768921 161.60238115 -78 159 C-79.46875 155.890625 -79.46875 155.890625 -80.5 152.25 C-80.69231201 151.58548828 -80.88462402 150.92097656 -81.08276367 150.23632812 C-84.08027034 139.59013414 -86.50425263 128.77202301 -89 118 C-90.65 121.3 -92.3 124.6 -94 128 C-101.02919203 128.07419174 -108.05815579 128.12862259 -115.08764648 128.16479492 C-117.4786374 128.17987543 -119.86960068 128.20034277 -122.26049805 128.22631836 C-125.69847435 128.26273306 -129.13608469 128.27973399 -132.57421875 128.29296875 C-133.64210129 128.30845261 -134.70998383 128.32393646 -135.81022644 128.33988953 C-145.06683095 128.34198563 -145.06683095 128.34198563 -149 125 C-151.27953436 122.0691701 -151.60698857 118.69947266 -151.50306702 115.02163696 C-150.68445326 111.73193644 -148.65748297 110.29505822 -146.08200073 108.23065186 C-142.5272406 106.1294652 -139.259677 106.2523745 -135.22265625 106.4140625 C-134.00563271 106.42679703 -134.00563271 106.42679703 -132.76402283 106.43978882 C-130.19544541 106.47313631 -127.63011348 106.54836921 -125.0625 106.625 C-123.3118946 106.65512421 -121.56123953 106.68249571 -119.81054688 106.70703125 C-115.53913129 106.77286489 -111.27011407 106.87624697 -107 107 C-106.85973389 105.76467529 -106.71946777 104.52935059 -106.57495117 103.2565918 C-106.02077935 98.8413758 -104.86111191 94.97265281 -103.3125 90.8125 C-103.08111328 90.12736328 -102.84972656 89.44222656 -102.61132812 88.73632812 C-100.7306444 83.6344211 -98.53459654 81.04050512 -94 78 C-90.24704863 76.96844736 -86.84175704 77.65564485 -83.25 79.125 C-77.0094645 84.32544625 -75.41448364 91.33182096 -73.25 98.875 C-72.93417969 99.94492187 -72.61835938 101.01484375 -72.29296875 102.1171875 C-71.51950845 104.74226489 -70.75551483 107.36971272 -70 110 C-69.67 110 -69.34 110 -69 110 C-68.79636841 108.85337891 -68.79636841 108.85337891 -68.58862305 107.68359375 C-67.06685597 99.12099745 -65.53683109 90.55990525 -64 82 C-63.84595703 81.13987305 -63.69191406 80.27974609 -63.53320312 79.39355469 C-62.72869871 74.92075031 -61.88144585 70.45826034 -61 66 C-60.85208008 65.23413574 -60.70416016 64.46827148 -60.55175781 63.67919922 C-60.07134138 61.22011023 -59.56956269 58.76621999 -59.0625 56.3125 C-58.91675537 55.55694824 -58.77101074 54.80139648 -58.62084961 54.02294922 C-57.64011097 49.42537952 -56.37723519 46.45654404 -53 43 C-49.47806464 41.23903232 -45.72643043 42.06839239 -42 43 C-33.27637114 49.88707542 -33.48755212 68.1069541 -32 78.4375 C-29.7070406 94.35675287 -29.7070406 94.35675287 -26 110 C-23.91327936 95.78816778 -22.25951548 81.54766343 -20.74285889 67.2661438 C-19.47074878 55.28743423 -18.12909256 43.32181281 -16.64453125 31.3671875 C-16.21642024 27.89645252 -15.83766442 24.4270985 -15.51171875 20.9453125 C-15.39594482 19.77693848 -15.39594482 19.77693848 -15.27783203 18.58496094 C-15.08106755 16.56555948 -14.9009897 14.54454999 -14.72265625 12.5234375 C-13.00971722 4.17170234 -9.11457519 -1.08139028 0 0 Z " fill="#161614" transform="translate(514,418)"/>
<path d="M0 0 C0.74979126 -0.00570007 1.49958252 -0.01140015 2.27209473 -0.01727295 C3.85195536 -0.02665785 5.431835 -0.03323077 7.01171875 -0.03710938 C9.372765 -0.04673844 11.73290999 -0.07779186 14.09375 -0.109375 C24.37259195 -0.18113227 33.89485343 0.89028459 43.90625 3.203125 C44.74833008 3.39664551 45.59041016 3.59016602 46.45800781 3.78955078 C85.40713022 13.43159017 117.23552393 39.04263262 137.85791016 73.05688477 C145.87887013 86.7176268 151.80242069 100.94066564 155.46582031 116.35107422 C155.83721542 117.9128277 156.23936795 119.46721995 156.6484375 121.01953125 C158.41214121 128.35218981 159.78820969 138.52080928 156.9296875 145.6328125 C153.64800509 148.17960078 150.23811582 147.62458277 146.21875 147.453125 C145.42146484 147.43507813 144.62417969 147.41703125 143.80273438 147.3984375 C141.83672551 147.35134747 139.87133506 147.27960399 137.90625 147.203125 C137.79144287 146.49518799 137.67663574 145.78725098 137.55834961 145.05786133 C131.12409717 106.14116399 117.23443046 70.94909363 84.609375 46.76953125 C57.1674735 27.28871615 23.75047751 19.13792364 -9.65332031 23.68798828 C-42.18252999 29.57552191 -72.45473602 47.32220791 -91.84375 74.453125 C-105.82781353 95.84665503 -114.11108485 117.79429559 -117.734375 143.12109375 C-118.09375 145.203125 -118.09375 145.203125 -119.09375 147.203125 C-122.05262459 147.28382158 -125.0093159 147.34347165 -127.96875 147.390625 C-128.81050781 147.41576172 -129.65226562 147.44089844 -130.51953125 147.46679688 C-131.72802734 147.48129883 -131.72802734 147.48129883 -132.9609375 147.49609375 C-134.07637939 147.51965942 -134.07637939 147.51965942 -135.21435547 147.54370117 C-135.83455566 147.43131104 -136.45475586 147.3189209 -137.09375 147.203125 C-141.43139798 140.69665302 -138.82374669 130.5530751 -137.49609375 123.20996094 C-129.57558511 83.70354039 -106.14422894 47.32352757 -72.76953125 24.609375 C-51.31499205 10.40941311 -26.00911494 0.15882165 0 0 Z " fill="#161615" transform="translate(502.09375,364.796875)"/>
<path d="M0 0 C3.67664407 3.47455902 5.33686598 7.76019172 7.1875 12.375 C13.04241889 26.23813265 20.80549256 37.95717439 31 49 C31.825 49.89589844 32.65 50.79179688 33.5 51.71484375 C56.27505538 75.40236129 88.15042702 88.38509646 120.77368164 89.33691406 C140.85096988 89.61110271 158.83286782 85.43076844 177 77 C178.17949219 76.45472656 179.35898437 75.90945313 180.57421875 75.34765625 C209.84815442 60.62067016 231.31923793 34.53651991 242.9921875 4.29296875 C244 2 244 2 246 0 C248.86328125 -0.3359375 248.86328125 -0.3359375 252.3125 -0.375 C253.44300781 -0.40335938 254.57351563 -0.43171875 255.73828125 -0.4609375 C259.77333286 0.10928536 261.37234516 0.87442183 264 4 C264.90902474 10.40387577 263.19451006 15.18148989 260.625 21 C260.26776855 21.8245166 259.91053711 22.6490332 259.54248047 23.49853516 C255.80640349 31.85212712 251.21018321 39.49263647 246 47 C245.42475586 47.83772949 245.42475586 47.83772949 244.83789062 48.69238281 C221.94209025 81.53859557 186.29532636 103.05994829 147.30004883 110.51025391 C129.27170424 113.57896368 110.78398968 113.30408135 93 109 C92.25911133 108.83371094 91.51822266 108.66742187 90.75488281 108.49609375 C62.43077596 102.11519358 40.13251468 88.66788495 19 69 C18.32195312 68.37609375 17.64390625 67.7521875 16.9453125 67.109375 C3.71737081 54.46580021 -6.68591884 38.02248936 -14.125 21.375 C-14.40819092 20.74875732 -14.69138184 20.12251465 -14.9831543 19.47729492 C-16.91036871 14.92741684 -17.715162 10.89310987 -18 6 C-14.52422405 -1.48628666 -7.61270864 -1.74032548 0 0 Z " fill="#161615" transform="translate(389,562)"/>
<path d="M0 0 C1.5003479 0.07069702 1.5003479 0.07069702 3.03100586 0.14282227 C4.1105957 0.19116211 5.19018555 0.23950195 6.30249023 0.28930664 C7.43879883 0.34538086 8.57510742 0.40145508 9.74584961 0.45922852 C11.45611328 0.53753906 11.45611328 0.53753906 13.20092773 0.61743164 C16.02864984 0.74757785 18.85605961 0.8825573 21.68334961 1.02172852 C21.68334961 1.35172852 21.68334961 1.68172852 21.68334961 2.02172852 C2.34292408 3.21321788 2.34292408 3.21321788 -7.31665039 3.02172852 C-6.67727539 2.71235352 -6.03790039 2.40297852 -5.37915039 2.08422852 C-1.3580203 0.01273725 -1.3580203 0.01273725 0 0 Z " fill="#070706" transform="translate(498.316650390625,330.978271484375)"/>
<path d="M0 0 C0 0.99 0 1.98 0 3 C-1.609375 4.24609375 -1.609375 4.24609375 -3.75 5.4375 C-6.96251886 7.31716529 -9.50563505 9.19383943 -12 12 C-12 11.01 -12 10.02 -12 9 C-12.66 8.67 -13.32 8.34 -14 8 C-9.38 5.36 -4.76 2.72 0 0 Z " fill="#1E1E1E" transform="translate(447,379)"/>
<path d="M0 0 C0.33 0 0.66 0 1 0 C1.66 5.61 2.32 11.22 3 17 C2.34 17 1.68 17 1 17 C1 15.68 1 14.36 1 13 C0.34 13 -0.32 13 -1 13 C-0.67 8.71 -0.34 4.42 0 0 Z " fill="#1E1E1E" transform="translate(337,534)"/>
<path d="M0 0 C1 3 1 3 0.00390625 5.48046875 C-0.47175781 6.37378906 -0.94742187 7.26710938 -1.4375 8.1875 C-1.91058594 9.08855469 -2.38367188 9.98960937 -2.87109375 10.91796875 C-3.24363281 11.60503906 -3.61617188 12.29210937 -4 13 C-5.0169313 10.34501768 -5.13022151 9.30844625 -4.00390625 6.640625 C-3.52824219 5.85171875 -3.05257813 5.0628125 -2.5625 4.25 C-2.08941406 3.45078125 -1.61632812 2.6515625 -1.12890625 1.828125 C-0.75636719 1.22484375 -0.38382812 0.6215625 0 0 Z " fill="#0E0E0E" transform="translate(382,442)"/>
<path d="M0 0 C0 3.66184524 -0.919642 5.02806 -3 8 C-5.1875 9.8125 -5.1875 9.8125 -7 11 C-6.40716379 7.60807637 -5.23256811 5.7892243 -2.9375 3.25 C-2.38964844 2.63640625 -1.84179688 2.0228125 -1.27734375 1.390625 C-0.85582031 0.93171875 -0.43429687 0.4728125 0 0 Z " fill="#10100E" transform="translate(363,380)"/>
<path d="M0 0 C0.66 0.33 1.32 0.66 2 1 C0.515 2.485 0.515 2.485 -1 4 C-0.67 4.66 -0.34 5.32 0 6 C-3.75 9 -3.75 9 -6 9 C-5.52797514 4.75177626 -3.03344482 2.80010291 0 0 Z " fill="#0C0C0B" transform="translate(645,635)"/>
<path d="M0 0 C2 3 2 3 1.7578125 5.69921875 C1.44457031 7.17841797 1.44457031 7.17841797 1.125 8.6875 C0.81949219 10.17830078 0.81949219 10.17830078 0.5078125 11.69921875 C0.34023438 12.45847656 0.17265625 13.21773438 0 14 C-0.66 13.34 -1.32 12.68 -2 12 C-1.66887313 7.89402683 -1.15559618 3.96204403 0 0 Z " fill="#272727" transform="translate(367,478)"/>
<path d="M0 0 C0.33 0 0.66 0 1 0 C1 3.3 1 6.6 1 10 C1.66 10 2.32 10 3 10 C2.67 12.31 2.34 14.62 2 17 C1.67 17 1.34 17 1 17 C0.09586327 13.16275828 -0.10576898 9.62497726 -0.0625 5.6875 C-0.05347656 4.61886719 -0.04445313 3.55023438 -0.03515625 2.44921875 C-0.02355469 1.64097656 -0.01195312 0.83273437 0 0 Z " fill="#20201E" transform="translate(748,424)"/>
<path d="M0 0 C0.66 0.66 1.32 1.32 2 2 C1.96712417 4.72869407 1.43602229 7.2966618 1 10 C0.34 9.67 -0.32 9.34 -1 9 C-1.94934202 6.07286212 -2.23176473 4.57168632 -1.0625 1.6875 C-0.711875 1.130625 -0.36125 0.57375 0 0 Z " fill="#1F1F1E" transform="translate(763,533)"/>
<path d="M0 0 C0.33 0 0.66 0 1 0 C1.33 3.63 1.66 7.26 2 11 C1.01 11.33 0.02 11.66 -1 12 C-0.67 8.04 -0.34 4.08 0 0 Z " fill="#D1D1CF" transform="translate(510,508)"/>
<path d="M0 0 C2 1 2 1 2.6328125 2.84765625 C2.79523438 3.57855469 2.95765625 4.30945313 3.125 5.0625 C3.29257812 5.79597656 3.46015625 6.52945313 3.6328125 7.28515625 C3.75398438 7.85105469 3.87515625 8.41695312 4 9 C3.34 9 2.68 9 2 9 C0.3125 7.3125 0.3125 7.3125 -1 5 C-0.6875 2.25 -0.6875 2.25 0 0 Z " fill="#1D1D1D" transform="translate(298,578)"/>
<path d="M0 0 C2.49388574 4.98777148 1.88836125 6.66983248 1 12 C0.34 11.67 -0.32 11.34 -1 11 C-0.67 7.37 -0.34 3.74 0 0 Z " fill="#343434" transform="translate(685,542)"/>
<path d="M0 0 C3.91211733 1.15585285 6.8745041 2.35534962 10 5 C9.67 5.66 9.34 6.32 9 7 C7.4972763 6.02501855 5.99788037 5.04490611 4.5 4.0625 C3.6646875 3.51722656 2.829375 2.97195313 1.96875 2.41015625 C1.3190625 1.94480469 0.669375 1.47945312 0 1 C0 0.67 0 0.34 0 0 Z " fill="#1C1C1C" transform="translate(430,648)"/>
<path d="M0 0 C0.99 0.33 1.98 0.66 3 1 C3.33 1.99 3.66 2.98 4 4 C0.25 5.125 0.25 5.125 -2 4 C-1.34 2.68 -0.68 1.36 0 0 Z " fill="#1E1E1C" transform="translate(618,682)"/>
</svg>
